<svg xmlns="http://www.w3.org/2000/svg" viewBox="0 0 41.95 38.96"><defs><style>.cls-1,.cls-2,.cls-4{fill:none;stroke-linecap:round;stroke-linejoin:round;stroke-width:4px;}.cls-1{stroke:#3d5a80;}.cls-2{stroke:#ee6c4d;}.cls-3{opacity:0.15;}.cls-4{stroke:#ff6ad3;}</style></defs><g id="Layer_2" data-name="Layer 2"><g id="Icons"><path class="cls-1" d="M21.73,35H6.78a3,3,0,0,1-3-3V5a3,3,0,0,1,3-3h15"/><line class="cls-2" x1="28.55" y1="29.89" x2="39.95" y2="18.5"/><line class="cls-2" x1="39.95" y1="18.5" x2="28.55" y2="7.11"/><line class="cls-2" x1="18.43" y1="18.5" x2="39.47" y2="18.5"/><g class="cls-3"><path class="cls-1" d="M20,37H5a3,3,0,0,1-3-3V7A3,3,0,0,1,5,4H20"/><line class="cls-2" x1="26.78" y1="31.85" x2="38.18" y2="20.46"/><line class="cls-4" x1="38.18" y1="20.46" x2="26.78" y2="9.07"/><line class="cls-4" x1="16.66" y1="20.46" x2="37.69" y2="20.46"/></g></g></g></svg>