<svg xmlns="http://www.w3.org/2000/svg" viewBox="0 0 42.78 37.22"><defs><style>.cls-1,.cls-2,.cls-4{fill:none;stroke-linecap:round;stroke-linejoin:round;stroke-width:4px;}.cls-1{stroke:#3d5a80;}.cls-2{stroke:#ee6c4d;}.cls-3{opacity:0.15;}.cls-4{stroke:#ff6ad3;}</style></defs><g id="Layer_2" data-name="Layer 2"><g id="Icons"><path class="cls-1" d="M3.78,23v6.22a4,4,0,0,0,4,4h29a4,4,0,0,0,4-4V16.82H29.5a7.41,7.41,0,0,1-14.45,0H3.78"/><path class="cls-2" d="M22.28,22.59a7.42,7.42,0,0,0,7.22-5.77H40.78L34.89,2H9.66L3.78,16.82H15.05A7.42,7.42,0,0,0,22.28,22.59Z"/><g class="cls-3"><path class="cls-4" d="M2,25v6.22a4,4,0,0,0,4,4H35a4,4,0,0,0,4-4V18.78H27.72a7.4,7.4,0,0,1-14.44,0H2"/><path class="cls-4" d="M20.5,24.55a7.41,7.41,0,0,0,7.22-5.77H39L33.11,4H7.89L2,18.78H13.28A7.41,7.41,0,0,0,20.5,24.55Z"/></g></g></g></svg>