<svg xmlns="http://www.w3.org/2000/svg" viewBox="0 0 41.78 35"><defs><style>.cls-1,.cls-2{fill:none;stroke-linecap:round;stroke-linejoin:round;stroke-width:4px;}.cls-1{stroke:#3d5a80;}.cls-2{stroke:#ee6c4d;}.cls-3{opacity:0.15;}</style></defs><g id="Layer_2" data-name="Layer 2"><g id="Icons"><path class="cls-1" d="M29.65,5.3l-.6-1.15A4,4,0,0,0,25.5,2H18.05A4,4,0,0,0,14.5,4.15L13.9,5.3a4,4,0,0,1-3.54,2.15H7.78a4,4,0,0,0-4,4V27a4,4,0,0,0,4,4h28a4,4,0,0,0,4-4V11.45a4,4,0,0,0-4-4H33.19A4,4,0,0,1,29.65,5.3Z"/><circle class="cls-2" cx="21.78" cy="17.9" r="6.7"/><g class="cls-3"><path class="cls-2" d="M27.87,7.26l-.6-1.15A4,4,0,0,0,23.73,4H16.27a4,4,0,0,0-3.54,2.15l-.6,1.15A4,4,0,0,1,8.58,9.41H6a4,4,0,0,0-4,4V29a4,4,0,0,0,4,4H34a4,4,0,0,0,4-4V13.41a4,4,0,0,0-4-4H31.42A4,4,0,0,1,27.87,7.26Z"/><circle class="cls-2" cx="20" cy="19.86" r="6.7"/></g></g></g></svg>