<svg xmlns="http://www.w3.org/2000/svg" viewBox="0 0 99.99 123.37">
    <defs>
        <style>.cls-1{fill:#343b4a;}</style>
          <style>
            @media (prefers-color-scheme: dark) {
            :root {
                filter: invert(100%);
            }
            }
          </style>

    </defs>
    <g id="Layer_2" data-name="Layer 2"><g id="_12" data-name="12"><path class="cls-1" d="M95.78,42.58C93.43,38.48,88,32,86,29.65v-14A12.11,12.11,0,0,0,73.85,3.61,12,12,0,0,0,66.4,6.2a12.1,12.1,0,0,0-21.13,0,12,12,0,0,0-7.47-2.6A12.12,12.12,0,0,0,25.69,15.72V16a12,12,0,0,0-5.56-1.54l-.17,0h-.3l-.23,0a12.08,12.08,0,0,0-9,4.36,25.21,25.21,0,0,0-4.77,7.47C-3.18,46.45-.58,90,6,97.69a16,16,0,0,1,3.69,8.58c1.1,10.45,12.3,17.1,28.65,17.1h1c15.46-.24,31.6-7,32.73-19.66.77-.91,3-3,5.09-4.93C83.28,93,91.72,85.17,94.73,78.94,101.37,65.18,101.72,53,95.78,42.58ZM73.9,9.79a5.91,5.91,0,0,1,5.9,5.9v11.5C76.16,26.64,68,25.36,68,25.36V15.69A5.92,5.92,0,0,1,73.9,9.79ZM55.84,6.19a5.92,5.92,0,0,1,5.92,5.92V24.89c-5.1-.48-9.54-.67-11.36-.14-.18.05-.32.12-.49.17V12.11A5.93,5.93,0,0,1,55.84,6.19ZM49.91,44.63a48.68,48.68,0,0,0,4.69,4l7.16,3.3v8.31a5.93,5.93,0,0,1-11.85,0Zm-18-28.91a5.93,5.93,0,1,1,11.85,0v13.8a7,7,0,0,0-.66,1.92,8.8,8.8,0,0,0,.66,4.81V63.81a5.93,5.93,0,1,1-11.85,0V15.72ZM25.69,54.8a4.12,4.12,0,0,1-8.24,0L13.84,26.36a5.89,5.89,0,0,1,1.43-3.64,7.15,7.15,0,0,1,4.24-2.08h.06c1.24.28,6.05,1.65,6.12,6ZM89.16,76.25c-2.5,5.19-10.78,12.89-16.26,18-4.93,4.59-6.38,6-6.81,7.52a6.19,6.19,0,0,0-.22,1.33C65.22,112,51.64,117,39.19,117.18c-11,.19-22.49-3.33-23.36-11.55a22.37,22.37,0,0,0-5.14-12C6.93,89.28,3.7,57,8.88,36.2L11.26,55a10.29,10.29,0,0,0,14.45,9.21,12.1,12.1,0,0,0,22.66,5.5A12.09,12.09,0,0,0,68,60.21v-6l6,2.5L76.3,51,58,43.4c-4.54-3.42-9.21-8.63-8.81-10.87a1.25,1.25,0,0,1,.43-.62l.32-.26a8.07,8.07,0,0,1,2.2-1c2.38-.62,16.76,1,29.18,3,1.91,2.23,7,8.37,9.12,12C95.28,54.15,94.86,64.44,89.16,76.25Z"/></g></g>
</svg>